<?xml version="1.0" encoding="utf-8"?>
<!-- Generator: Adobe Illustrator 26.0.1, SVG Export Plug-In . SVG Version: 6.00 Build 0)  -->
<svg version="1.1" id="Layer_1" xmlns="http://www.w3.org/2000/svg" xmlns:xlink="http://www.w3.org/1999/xlink" x="0px" y="0px"
	 viewBox="0 0 1200 400" style="enable-background:new 0 0 1200 400;" xml:space="preserve">
<style type="text/css">
	.st0{fill:#F5B700;}
	.st1{fill:#FFC033;}
	.st2{fill:none;stroke:#000000;stroke-width:14;stroke-linecap:round;stroke-linejoin:round;stroke-miterlimit:10;}
</style>
<g>
	<path class="st0" d="M198.95,135.21l-45.17,25.07c0,0,0,22.58,6.16,34.89l39.01,22.49V135.21z"/>
	<polygon class="st1" points="198.95,189.54 153.78,160.28 198.95,135.21 	"/>
	<polygon class="st0" points="198.95,233.56 164.22,217.67 151.73,240.33 198.95,263.96 	"/>
	<polygon points="198.95,281.95 147.62,258.8 147.62,279.15 198.95,304.83 	"/>
	<polygon class="st0" points="143.51,295.75 198.95,322.65 198.95,348.5 149.67,310.12 	"/>
	<polygon class="st0" points="198.95,98.7 138.53,130.52 138.53,148.31 198.95,117.4 	"/>
	<path class="st0" d="M172.91,112.42c0,0,9.61-38.34-27.34-50.66l-2.05,6.16c0,0,35.19,6.9,19.65,49.63L172.91,112.42z"/>
	<polygon class="st0" points="28.53,201.33 57.28,154.12 38.93,154.12 8,203.38 38.8,244.44 59.33,244.44 	"/>
	<ellipse class="st0" cx="136.33" cy="62.78" rx="11.29" ry="11.29"/>
	<polyline class="st2" points="137.35,186.96 83.97,164.39 53.17,201.33 88.03,240.81 153.78,213.82 	"/>
	<path class="st0" d="M198.95,135.21l45.17,25.07c0,0,0,22.58-6.16,34.89l-39.01,22.49V135.21z"/>
	<polygon class="st1" points="198.95,189.54 244.12,160.28 198.95,135.21 	"/>
	<polygon class="st0" points="198.95,233.56 233.68,217.67 246.18,240.33 198.95,263.96 	"/>
	<polygon points="198.95,281.95 250.28,258.8 250.28,279.15 198.95,304.83 	"/>
	<polygon class="st0" points="254.39,295.75 198.95,322.65 198.95,348.5 248.23,310.12 	"/>
	<polygon class="st0" points="198.95,98.7 259.37,130.52 259.37,148.31 198.95,117.4 	"/>
	<path class="st0" d="M224.99,112.42c0,0-9.61-38.34,27.34-50.66l2.05,6.16c0,0-35.19,6.9-19.65,49.63L224.99,112.42z"/>
	<polygon class="st0" points="369.37,201.33 340.63,154.12 358.97,154.12 389.9,203.38 359.11,244.44 338.57,244.44 	"/>
	<ellipse class="st0" cx="261.58" cy="62.78" rx="11.29" ry="11.29"/>
	<polyline class="st2" points="260.55,186.96 313.93,164.39 344.73,201.33 309.87,240.81 244.12,213.82 	"/>
	<g>
		<path class="st0" d="M520.47,170.85c6.65,4.09,11.87,9.74,15.68,16.95c3.81,7.21,5.71,15.25,5.71,24.11
			c0,8.86-2.04,16.9-6.14,24.11c-4.09,7.21-9.74,12.89-16.96,17.04c-7.22,4.15-15.2,6.22-23.94,6.22c-8.75,0-16.67-2.07-23.77-6.22
			c-7.1-4.14-12.73-9.82-16.87-17.04c-4.15-7.21-6.22-15.25-6.22-24.11v-77.69c0-2.61,0.82-4.71,2.47-6.3
			c1.65-1.59,3.72-2.39,6.22-2.39c2.61,0,4.71,0.8,6.31,2.39c1.59,1.59,2.39,3.69,2.39,6.3v46c3.98-4.88,8.8-8.69,14.49-11.41
			c5.68-2.73,11.81-4.09,18.41-4.09C506.41,164.71,513.83,166.76,520.47,170.85z M510.25,239.76c4.6-2.78,8.24-6.61,10.91-11.5
			c2.67-4.88,4-10.33,4-16.36c0-6.02-1.34-11.44-4-16.27c-2.67-4.83-6.31-8.63-10.91-11.41c-4.6-2.78-9.74-4.17-15.42-4.17
			c-5.68,0-10.82,1.39-15.42,4.17c-4.6,2.78-8.21,6.59-10.82,11.41c-2.61,4.83-3.92,10.25-3.92,16.27c0,6.02,1.3,11.47,3.92,16.36
			c2.61,4.88,6.22,8.72,10.82,11.5c4.6,2.78,9.74,4.17,15.42,4.17C500.5,243.93,505.65,242.54,510.25,239.76z"/>
		<path class="st0" d="M649.22,215.91c-1.48,1.42-3.35,2.13-5.62,2.13h-64.76c1.25,7.95,4.86,14.37,10.82,19.25
			c5.96,4.88,13.26,7.33,21.9,7.33c3.41,0,6.96-0.62,10.65-1.87c3.69-1.25,6.73-2.78,9.12-4.6c1.59-1.25,3.46-1.87,5.62-1.87
			c2.16,0,3.86,0.57,5.11,1.7c2.04,1.7,3.07,3.64,3.07,5.79c0,2.04-0.91,3.75-2.73,5.11c-3.86,3.07-8.66,5.57-14.4,7.5
			c-5.74,1.93-11.22,2.9-16.45,2.9c-9.32,0-17.67-2.02-25.05-6.05c-7.39-4.03-13.15-9.63-17.3-16.78
			c-4.15-7.16-6.22-15.27-6.22-24.36c0-9.08,1.96-17.23,5.88-24.45c3.92-7.21,9.37-12.83,16.36-16.87
			c6.99-4.03,14.91-6.05,23.77-6.05c8.75,0,16.3,1.93,22.67,5.79c6.36,3.86,11.25,9.26,14.66,16.18c3.41,6.93,5.11,14.88,5.11,23.85
			C651.44,212.7,650.7,214.49,649.22,215.91z M588.81,186.18c-5.17,4.54-8.44,10.62-9.8,18.23h56.75
			c-1.02-7.61-3.86-13.69-8.52-18.23c-4.66-4.54-10.74-6.81-18.24-6.81C600.71,179.36,593.98,181.64,588.81,186.18z"/>
		<path class="st0" d="M751.64,215.91c-1.48,1.42-3.35,2.13-5.62,2.13h-64.76c1.25,7.95,4.86,14.37,10.82,19.25
			c5.96,4.88,13.26,7.33,21.9,7.33c3.41,0,6.96-0.62,10.65-1.87c3.69-1.25,6.73-2.78,9.12-4.6c1.59-1.25,3.46-1.87,5.62-1.87
			c2.16,0,3.86,0.57,5.11,1.7c2.04,1.7,3.07,3.64,3.07,5.79c0,2.04-0.91,3.75-2.73,5.11c-3.86,3.07-8.67,5.57-14.4,7.5
			c-5.74,1.93-11.22,2.9-16.45,2.9c-9.32,0-17.67-2.02-25.05-6.05c-7.39-4.03-13.15-9.63-17.3-16.78
			c-4.15-7.16-6.22-15.27-6.22-24.36c0-9.08,1.96-17.23,5.88-24.45c3.92-7.21,9.37-12.83,16.36-16.87
			c6.99-4.03,14.91-6.05,23.77-6.05c8.75,0,16.3,1.93,22.67,5.79c6.36,3.86,11.25,9.26,14.66,16.18c3.41,6.93,5.11,14.88,5.11,23.85
			C753.86,212.7,753.12,214.49,751.64,215.91z M691.23,186.18c-5.17,4.54-8.44,10.62-9.8,18.23h56.75
			c-1.02-7.61-3.86-13.69-8.52-18.23c-4.66-4.54-10.74-6.81-18.24-6.81C703.13,179.36,696.4,181.64,691.23,186.18z"/>
		<path d="M843.5,169.65c6.25,3.41,11.13,8.38,14.66,14.91c3.52,6.53,5.28,14.4,5.28,23.6v41.91c0,2.5-0.83,4.57-2.47,6.22
			c-1.65,1.65-3.72,2.47-6.22,2.47c-2.5,0-4.57-0.82-6.22-2.47c-1.65-1.65-2.47-3.72-2.47-6.22v-41.91c0-9.2-2.47-16.16-7.41-20.87
			c-4.94-4.71-11.5-7.07-19.68-7.07c-4.77,0-9.12,0.97-13.04,2.9c-3.92,1.93-6.99,4.54-9.2,7.84c-2.22,3.3-3.32,6.99-3.32,11.07
			v48.04c0,2.5-0.8,4.57-2.39,6.22c-1.59,1.65-3.69,2.47-6.31,2.47c-2.5,0-4.58-0.82-6.22-2.47c-1.65-1.65-2.47-3.72-2.47-6.22
			V134.22c0-2.61,0.82-4.71,2.47-6.3c1.65-1.59,3.72-2.39,6.22-2.39c2.61,0,4.71,0.8,6.31,2.39c1.59,1.59,2.39,3.69,2.39,6.3v41.74
			c3.63-3.63,7.95-6.44,12.95-8.43c5-1.99,10.34-2.98,16.02-2.98C830.2,164.54,837.25,166.25,843.5,169.65z"/>
		<path d="M910.3,253.22c-7.16-4.03-12.73-9.63-16.7-16.78c-3.98-7.16-5.96-15.27-5.96-24.36c0-9.2,1.99-17.38,5.96-24.53
			c3.98-7.16,9.54-12.75,16.7-16.78c7.16-4.03,15.28-6.05,24.37-6.05c8.97,0,17.01,2.02,24.11,6.05c7.1,4.03,12.67,9.63,16.7,16.78
			c4.03,7.16,6.05,15.33,6.05,24.53c0,9.09-1.99,17.21-5.96,24.36c-3.98,7.16-9.52,12.75-16.62,16.78
			c-7.1,4.03-15.2,6.05-24.29,6.05C925.58,259.26,917.46,257.25,910.3,253.22z M950.26,239.84c4.6-2.73,8.18-6.5,10.74-11.33
			c2.56-4.83,3.83-10.31,3.83-16.44s-1.28-11.64-3.83-16.53c-2.56-4.88-6.13-8.69-10.74-11.41c-4.6-2.73-9.8-4.09-15.59-4.09
			s-10.99,1.36-15.59,4.09c-4.6,2.73-8.21,6.53-10.82,11.41c-2.61,4.88-3.92,10.39-3.92,16.53s1.31,11.61,3.92,16.44
			c2.61,4.83,6.22,8.6,10.82,11.33c4.6,2.73,9.8,4.09,15.59,4.09S945.66,242.57,950.26,239.84z"/>
		<path d="M1077.48,169.4c0.79,1.19,1.19,2.53,1.19,4c0,1.02-0.29,2.1-0.85,3.24l-36.13,76.15c-1.7,3.75-4.32,5.62-7.84,5.62
			c-1.93,0-3.52-0.43-4.77-1.28c-1.25-0.85-2.39-2.3-3.41-4.34l-36.13-76.15c-0.46-0.91-0.68-1.93-0.68-3.07
			c0-3.07,1.59-5.39,4.77-6.98c1.02-0.57,2.21-0.85,3.58-0.85c1.36,0,2.67,0.37,3.92,1.11c1.25,0.74,2.22,1.79,2.9,3.15l29.65,63.89
			l29.31-63.89c0.68-1.36,1.67-2.41,2.98-3.15c1.3-0.74,2.7-1.11,4.18-1.11c1.47,0,2.78,0.29,3.92,0.85
			C1075.55,167.27,1076.68,168.21,1077.48,169.4z"/>
		<path d="M1158.34,170.93c7.1,4.15,12.72,9.83,16.87,17.04c4.15,7.21,6.22,15.25,6.22,24.11v37.99c0,2.5-0.83,4.57-2.47,6.22
			c-1.65,1.65-3.72,2.47-6.22,2.47c-2.5,0-4.57-0.82-6.22-2.47c-1.65-1.65-2.47-3.72-2.47-6.22v-6.3
			c-3.98,4.88-8.81,8.69-14.49,11.41c-5.68,2.73-11.82,4.09-18.41,4.09c-8.18,0-15.59-2.04-22.24-6.13
			c-6.65-4.09-11.87-9.74-15.68-16.95c-3.81-7.21-5.71-15.25-5.71-24.11c0-8.86,2.04-16.89,6.13-24.11
			c4.09-7.21,9.74-12.89,16.96-17.04c7.21-4.14,15.19-6.22,23.94-6.22C1143.32,164.71,1151.24,166.79,1158.34,170.93z
			 M1149.99,239.76c4.6-2.78,8.21-6.58,10.82-11.41c2.61-4.83,3.92-10.25,3.92-16.27c0-6.02-1.31-11.47-3.92-16.36
			c-2.62-4.88-6.22-8.72-10.82-11.5c-4.6-2.78-9.74-4.17-15.42-4.17c-5.68,0-10.82,1.39-15.42,4.17c-4.6,2.78-8.24,6.62-10.91,11.5
			c-2.67,4.88-4,10.34-4,16.36c0,6.02,1.33,11.44,4,16.27c2.67,4.83,6.31,8.63,10.91,11.41c4.6,2.78,9.74,4.17,15.42,4.17
			C1140.25,243.93,1145.39,242.54,1149.99,239.76z"/>
	</g>
</g>
<g>
</g>
<g>
</g>
<g>
</g>
<g>
</g>
<g>
</g>
<g>
</g>
<g>
</g>
<g>
</g>
<g>
</g>
<g>
</g>
<g>
</g>
<g>
</g>
<g>
</g>
<g>
</g>
<g>
</g>
</svg>
